<?xml version="1.0" encoding="utf-8"?>
<!-- Generator: Adobe Illustrator 24.1.2, SVG Export Plug-In . SVG Version: 6.00 Build 0)  -->
<svg version="1.1" id="Layer_1" xmlns="http://www.w3.org/2000/svg" xmlns:xlink="http://www.w3.org/1999/xlink" x="0px" y="0px"
	 viewBox="0 0 500 100" style="enable-background:new 0 0 500 100;" xml:space="preserve">
<style type="text/css">
	.st0{fill:#002E66;}
	.st1{fill:#008FD5;}
</style>
<g>
	<polygon class="st0" points="366.6,56.1 366.6,56.1 366.4,56.1 366.4,56.1 	"/>
	<rect x="331.2" y="56.1" class="st0" width="34.2" height="0"/>
	<polygon class="st0" points="366.4,56.1 365.4,56.1 365.4,56.1 366.4,56.1 	"/>
	<rect x="365.4" y="56.1" class="st0" width="1.1" height="0"/>
	<path class="st0" d="M373.4,62.4c0-2-0.6-3.6-1.9-4.7c-1.2-1.1-2.8-1.7-4.7-1.7h-37.1V62l35.6,0l0,17.6h8L373.4,62.4z"/>
	<polygon class="st0" points="373.4,30.1 373.4,16.8 365.4,16.8 365.4,51.9 373.4,51.9 373.4,35.5 373.4,35.5 383,35.5 383,30.1 	
		"/>
	<path class="st0" d="M435,26.3l0,16.8c0,4.5-0.1,8.2-0.4,11.2c-0.3,3-1,5.5-2.3,7.7h6.8c1.2-2,2.1-4.5,2.8-7.5c0.7-3,1-6.6,1-10.8
		c0,0,0-17.2,0-17.3c-0.1-1.8-0.7-3.2-1.8-4.3c-1.2-1.1-2.8-1.7-4.7-1.7h-38v5.9L435,26.3z"/>
	<polygon class="st0" points="426.5,67.1 426.5,41.7 418.8,41.7 418.8,67.1 418.7,67.1 412,67.1 412,41.7 404.2,41.7 404.2,67.1 
		393.3,67.1 393.3,67.1 393.3,72.8 393.3,72.8 393.3,72.8 448,72.8 448,72.8 448,67.1 	"/>
	<path class="st0" d="M298.8,16.8v16.4h-8.1V16.8H283v32.9c-0.9,0.5-2.1,0.8-3.6,1.2c-1.5,0.3-3.2,0.5-5,0.5h-12.3V24.2h14.1v-5.4
		h-22l0,31.9c0,2,0.6,3.6,1.9,4.7c1.2,1.1,2.8,1.7,4.7,1.7H274c2,0,3.7-0.3,5.2-0.7c1.3-0.4,2.7-1,3.9-1.9v22.2h7.6V39.1h8.1v37.7
		h7.6V16.8H298.8z"/>
	<path class="st0" d="M227,17h8.7c-0.1,0-0.1,59.6,0,59.7h-8.6C227.2,76.6,227.1,17,227,17z M207.4,24.3v6c0,5.6,1.4,10.6,4.6,14.9
		c3.3,4.3,6.8,6.9,10.8,7.6l-3.8,4.1c-2.9-0.9-6.3-1.9-9.7-4.7c-3.4-2.9-5.5-6.2-6.5-8.8c-1,2.6-3.1,6-6.5,8.7
		c-3.4,2.8-6.8,3.9-9.7,4.7l-3.8-4.1c4-0.7,7.6-3.3,10.8-7.6c3.2-4.3,4.6-9.3,4.6-14.9v-6c0,0-11.6,0-11.6,0v-5.4H219v5.4
		C219,24.3,207.4,24.3,207.4,24.3z"/>
	<polygon class="st0" points="366.6,56.1 366.6,56.1 366.4,56.1 366.4,56.1 	"/>
	<polygon class="st0" points="366.4,56.1 365.4,56.1 365.4,56.1 366.4,56.1 	"/>
	<rect x="365.4" y="56.1" class="st0" width="1.1" height="0"/>
	<path class="st0" d="M354.9,25.9h3.4v-5.3h-13.5V15h-8.3v2.6v3H323v5.3h3.4h5.3c-1.9,1.3-3.4,2.8-4.6,4.7c-1.1,1.9-1.7,4-1.7,6.2
		c0,3.8,1.5,7,4.5,9.7c3,2.7,6.6,4,10.7,4c4.2,0,7.8-1.3,10.8-4c3-2.7,4.4-5.9,4.4-9.7c0-2.2-0.6-4.3-1.7-6.2
		c-1.1-1.8-2.5-3.3-4.2-4.5h0c-0.1-0.1-0.2-0.2-0.3-0.2l0,0h5.2C354.8,25.9,354.9,25.9,354.9,25.9z M345.8,42.7
		c-1.5,1.6-3.2,2.5-5.2,2.5c-2,0-3.7-0.8-5.2-2.5c-1.5-1.6-2.2-3.6-2.2-5.8c0-2.2,0.7-4.2,2.2-5.8c1.5-1.6,3.2-2.5,5.2-2.5
		c2,0,3.7,0.8,5.2,2.5c1.4,1.6,2.2,3.6,2.2,5.8C348,39.1,347.3,41,345.8,42.7z"/>
	<g>
		<g>
			<path class="st0" d="M169.3,17h-8.8c0.1,0,0,6.3,0,6.3h-10v-4.8h-29.8c0.1,0,0,22,0,22c0,1.9,0.6,3.5,1.7,4.5
				c1.1,1.1,2.7,1.6,4.7,1.6h23.4v-5.4h10v8.5h8.7C169.2,49.8,169.2,17,169.3,17z M141.9,41.4h-12.5V23.9h12.5V41.4z M160.5,35.5
				h-10v-6.3h10V35.5z"/>
		</g>
		<g>
			<path class="st0" d="M163.3,55c-3.2-2.7-7.2-4.1-11.8-4.1c-4.6,0-8.5,1.4-11.8,4.1c-3.3,2.7-4.9,6-4.9,9.9c0,3.9,1.6,7.2,4.9,9.9
				c3.3,2.7,7.2,4.1,11.8,4.1c4.6,0,8.6-1.4,11.8-4.1c3.2-2.7,4.9-6,4.9-9.9C168.2,61.1,166.6,57.8,163.3,55z M157,71.3
				c-1.5,1.8-3.3,2.7-5.5,2.7c-2.1,0-3.9-0.9-5.5-2.7c-1.5-1.8-2.3-3.9-2.3-6.3c0-2.4,0.8-4.5,2.3-6.4c1.5-1.8,3.3-2.7,5.5-2.7
				c2.2,0,4,0.9,5.5,2.7c1.5,1.8,2.2,4,2.2,6.4C159.3,67.4,158.5,69.5,157,71.3z"/>
		</g>
	</g>
</g>
<g>
	<g>
		<path class="st0" d="M22.5,25.7c-0.5,0.1-3.6,4.3-2.4,8.6c1.3,4.7,6.6,6.8,6.6,6.8s3.5-4.6,2.2-9.6C27.7,27.1,23.2,25.5,22.5,25.7
			z"/>
		<path class="st0" d="M97.5,66.6c0.3-0.4-0.3-5.6-4.1-8c-4.2-2.6-9.4-0.5-9.4-0.5s0.5,5.7,4.9,8.5C92.7,69.1,97.2,67.2,97.5,66.6z"
			/>
		<path class="st0" d="M56.5,36.2c0.1,0.5,3.8,4.2,8.2,3.6c4.9-0.6,7.6-5.6,7.6-5.6s-4-4.1-9.2-3.5C58.7,31.2,56.4,35.5,56.5,36.2z"
			/>
		<path class="st0" d="M87.4,43.8c0.5,0.1,5.3-1.7,6.7-6c1.4-4.7-2-9.2-2-9.2s-5.4,2-7,7C83.8,39.8,86.8,43.6,87.4,43.8z"/>
		<path class="st1" d="M45.7,19.8c0.5-0.1,3.7-4.2,2.7-8.6c-1.2-4.8-6.4-6.9-6.4-6.9s-3.7,4.5-2.4,9.5C40.6,18.2,45.1,20,45.7,19.8z
			"/>
		<path class="st0" d="M24.6,53.7c-0.3-0.4-5.5-1.1-8.7,2c-3.5,3.4-2.7,9.1-2.7,9.1s5.7,0.9,9.5-2.7C25.8,59,25.1,54.2,24.6,53.7z"
			/>
		<path class="st0" d="M36.1,64.5c-0.5,0.1-4.1,3.8-3.5,8.3c0.7,4.9,5.7,7.5,5.7,7.5s4.1-4.1,3.3-9.3C41.1,66.6,36.8,64.4,36.1,64.5
			z"/>
		<path class="st1" d="M73,11.8c-0.4-0.3-5.6,0.1-8.1,3.8c-2.7,4.1-0.8,9.4-0.8,9.4s5.8-0.3,8.7-4.7C75.3,16.7,73.5,12.2,73,11.8z"
			/>
		<path class="st1" d="M24.9,49.2c0.2-0.4-0.8-5.6-4.8-7.5c-4.4-2.2-9.4,0.4-9.4,0.4s1.1,5.7,5.7,8C20.4,52.1,24.6,49.8,24.9,49.2z"
			/>
		<path class="st0" d="M33.4,55.3c0.5,0,4.5-3.3,4.4-7.8c-0.1-4.9-4.8-8.1-4.8-8.1s-4.5,3.6-4.4,8.8C28.7,52.6,32.7,55.3,33.4,55.3z
			"/>
		<path class="st0" d="M54.2,35.3c0.5-0.1,3.9-4,3.1-8.4c-0.9-4.8-6.1-7.3-6.1-7.3s-3.9,4.3-2.9,9.4C49.1,33.4,53.5,35.4,54.2,35.3z
			"/>
		<path class="st0" d="M49.2,36.3c0.1-0.5-2.1-5.2-6.4-6.2c-4.8-1.1-9.1,2.6-9.1,2.6s2.3,5.3,7.4,6.5C45.5,40.2,49.1,37,49.2,36.3z"
			/>
		<path class="st0" d="M42.3,26.4c0.2-0.4-0.7-5.6-4.7-7.6c-4.4-2.3-9.5,0.3-9.5,0.3s1,5.7,5.6,8.1C37.7,29.2,42,26.9,42.3,26.4z"/>
		<path class="st0" d="M70.6,28.9c0.2,0.5,4.6,3.2,8.8,1.7c4.6-1.7,6.2-7.2,6.2-7.2s-4.8-3.1-9.7-1.4C71.6,23.6,70.3,28.3,70.6,28.9
			z"/>
		<path class="st1" d="M23.7,77.4c0.5,0.1,5.3-1.8,6.5-6.1c1.3-4.7-2.2-9.2-2.2-9.2s-5.4,2.1-6.8,7.1C20,73.5,23.1,77.2,23.7,77.4z"
			/>
		<path class="st0" d="M60.2,42.8c0.3-0.4,5.4-1.4,8.8,1.5c3.7,3.2,3.3,8.9,3.3,8.9s-5.6,1.2-9.6-2.2C59.3,48.1,59.8,43.3,60.2,42.8
			z"/>
		<path class="st1" d="M83.7,50.2c0,0.5,3.3,4.5,7.8,4.4c4.9-0.1,8.1-4.8,8.1-4.8s-3.6-4.5-8.8-4.4C86.3,45.5,83.7,49.6,83.7,50.2z"
			/>
		<path class="st1" d="M77.3,62.3c-0.4,0.2-2.8,4.9-0.8,8.9c2.1,4.4,7.7,5.5,7.7,5.5s2.7-5.1,0.4-9.8C82.6,62.8,77.9,62,77.3,62.3z"
			/>
		<path class="st0" d="M77.6,50.5c0.5,0.1,5.1-2.3,6-6.7c0.9-4.8-3-9-3-9s-5.2,2.5-6.2,7.7C73.6,46.9,76.9,50.4,77.6,50.5z"/>
		<path class="st0" d="M66.9,79.9c0.5,0.1,5.1-2.3,6-6.7c0.9-4.8-3-9-3-9s-5.2,2.5-6.2,7.7C62.9,76.3,66.3,79.8,66.9,79.9z"/>
		<path class="st0" d="M56.9,20.5c0.5,0,4.8-2.9,5.2-7.3c0.4-4.9-3.9-8.6-3.9-8.6s-4.9,3.1-5.3,8.3C52.5,17.4,56.3,20.5,56.9,20.5z"
			/>
		<path class="st1" d="M50.1,43.1c-0.4-0.3-5.6-0.5-8.5,2.9c-3.2,3.8-1.8,9.3-1.8,9.3s5.8,0.3,9.1-3.7
			C51.8,48.1,50.6,43.5,50.1,43.1z"/>
		<path class="st0" d="M81,55.4c-0.1-0.9-0.8-1.4-1.5-1.2c-8.2,3-13.2,3.5-21.2,4.2l-1.3-0.3c-0.7,0-0.9-0.6-1-1l-0.4-16.4
			c0-1.4-0.6-2.6-1.3-2.6c-0.7,0-1.3,1.2-1.3,2.6L52.2,57c-0.7,2.3-2.7,2.1-2.7,2.1l0,0c-7.2,0.2-10.8,0.3-18.3-1.7
			c-1-0.3-1.8-0.5-1.9,0.3l0,0c0,0.8,0.9,1.9,1.9,2.2c8.5,3.5,12.7,2.8,20.5,4.7L50.1,93c-0.1,2-1.3,2.4-1.3,2.4h10
			c-0.5-0.2-1-1.5-1.3-2.1l-1.4-28.9c9-1.9,14.7-3.6,23.8-7.1C80.6,57,81.1,56.3,81,55.4z"/>
	</g>
</g>
</svg>
